<?xml version="1.0" encoding="UTF-8"?>
<svg version="1.1" xmlns="http://www.w3.org/2000/svg" width="492" height="166">
<path d="M0 0 C17.60060128 14.75826815 28.12230762 34.23435768 30.515625 57.109375 C32.39241436 80.03860216 25.76121086 100.84741322 11.390625 118.7578125 C-2.66029602 135.06691725 -21.06772608 145.29892775 -42.484375 148.109375 C-59.85483282 149.23959085 -75.95516349 147.44439407 -91.484375 139.109375 C-92.45761719 138.60664063 -93.43085937 138.10390625 -94.43359375 137.5859375 C-112.96929844 127.47555312 -126.45048307 110.16232107 -132.8359375 90.09375 C-139.28166583 67.6532698 -136.80031344 45.1235278 -126.234375 24.359375 C-114.96224483 4.49315855 -97.06520185 -8.92937654 -75.46484375 -15.859375 C-48.88753254 -22.80097019 -21.55401166 -16.64950601 0 0 Z " fill="#FEFEFE" transform="translate(136.484375,17.890625)"/>
<path d="M0 0 C28.05 0 56.1 0 85 0 C85.103125 10.951875 85.20625 21.90375 85.3125 33.1875 C85.35802002 36.61922607 85.40354004 40.05095215 85.45043945 43.58666992 C85.47302246 47.84436035 85.47302246 47.84436035 85.47721863 49.85054016 C85.48479359 51.22338516 85.50215986 52.5962013 85.52787781 53.96882629 C85.7200951 64.78830062 84.58170779 75.44629064 77.71875 84.31640625 C76.9865625 85.05761719 76.254375 85.79882812 75.5 86.5625 C74.7678125 87.32691406 74.035625 88.09132813 73.28125 88.87890625 C69.79274611 92.12249805 66.36124287 95.03276932 62.0625 97.125 C61.43472656 97.43695313 60.80695313 97.74890625 60.16015625 98.0703125 C50.05617288 102.41886231 36.66697408 102.95450933 26.2265625 99.09765625 C14.13587878 93.13716129 5.35555883 83.8049691 1 71 C0.14737306 66.73253483 -0.12198386 62.69970567 -0.11352539 58.35205078 C-0.11340454 57.03309814 -0.11328369 55.71414551 -0.11315918 54.35522461 C-0.10812507 52.96858675 -0.10295858 51.58194936 -0.09765625 50.1953125 C-0.09664917 48.92357178 -0.09564209 47.65183105 -0.09460449 46.34155273 C-0.08938269 41.60269262 -0.07542142 36.86384538 -0.0625 32.125 C-0.041875 21.52375 -0.02125 10.9225 0 0 Z " fill="#040404" transform="translate(41,39)"/>
<path d="M0 0 C6.6 0 13.2 0 20 0 C24.95 12.87 29.9 25.74 35 39 C35.33 26.13 35.66 13.26 36 0 C40.95 0 45.9 0 51 0 C51 24.42 51 48.84 51 74 C44.73 74 38.46 74 32 74 C26.39 60.14 20.78 46.28 15 32 C14.67 45.86 14.34 59.72 14 74 C9.38 74 4.76 74 0 74 C0 49.58 0 25.16 0 0 Z " fill="#FFFFFF" transform="translate(441,20)"/>
<path d="M0 0 C37.05714286 0 37.05714286 0 43.875 5.1875 C53.9822127 18.56469327 53.16398472 36.52164538 51.25 52.5 C50.10484861 59.49019497 48.44590201 65.07283934 43.0625 69.875 C29.80798538 79.07201014 18.81871611 74 0 74 C0 49.58 0 25.16 0 0 Z M16 13 C16 28.84 16 44.68 16 61 C25.01998999 61.58090346 25.01998999 61.58090346 32 58 C35.36004487 51.15990866 35.42340807 44.96594004 35.3125 37.4375 C35.31572266 36.33986328 35.31894531 35.24222656 35.32226562 34.11132812 C35.33474066 24.28355653 35.33474066 24.28355653 31.1875 15.625 C26.42570753 12.08766845 21.97804462 13 16 13 Z " fill="#FFFFFF" transform="translate(191,20)"/>
<path d="M0 0 C5.61 0 11.22 0 17 0 C17.33 8.91 17.66 17.82 18 27 C20.11860215 23.47664479 22.23675651 19.9530265 24.35375977 16.42871094 C25.07419761 15.22965828 25.79489925 14.03076407 26.51586914 12.83203125 C27.55163672 11.10979141 28.58637977 9.38693554 29.62109375 7.6640625 C30.2442749 6.62717285 30.86745605 5.5902832 31.50952148 4.52197266 C32.3850452 3.04053777 33.23042985 1.53914031 34 0 C39.94 0 45.88 0 52 0 C49.60950208 4.78099584 47.45692737 9.06727556 44.6171875 13.48828125 C44.00746094 14.44154297 43.39773438 15.39480469 42.76953125 16.37695312 C42.14433594 17.34568359 41.51914062 18.31441406 40.875 19.3125 C40.24207031 20.30056641 39.60914063 21.28863281 38.95703125 22.30664062 C36.66100368 25.88717618 34.35942834 29.4608575 32 33 C32.32373289 37.29827525 34.19828109 40.59161851 36.23828125 44.33203125 C36.7213398 45.22519295 36.7213398 45.22519295 37.2141571 46.13639832 C38.24079921 48.03184373 39.27627116 49.9222815 40.3125 51.8125 C41.33615993 53.69296352 42.35793585 55.57443409 43.37870789 57.45646667 C44.31086262 59.17300379 45.24770043 60.88699537 46.18481445 62.60083008 C48.19412926 66.36353218 50.09236937 70.18473874 52 74 C45.4 74 38.8 74 32 74 C27.38 64.43 22.76 54.86 18 45 C17.67 54.57 17.34 64.14 17 74 C11.39 74 5.78 74 0 74 C0 49.58 0 25.16 0 0 Z " fill="#FFFFFF" transform="translate(359,20)"/>
<path d="M0 0 C0.83265381 0.00523682 1.66530762 0.01047363 2.52319336 0.01586914 C3.42231445 0.0190918 4.32143555 0.02231445 5.24780273 0.02563477 C6.66609375 0.03820312 6.66609375 0.03820312 8.11303711 0.05102539 C9.06243164 0.05553711 10.01182617 0.06004883 10.98999023 0.06469727 C13.34356776 0.07652429 15.69702188 0.09300514 18.05053711 0.11352539 C21.06640259 7.59389673 23.14905874 15.31243173 25.28100586 23.07836914 C25.6800004 24.5219337 26.07928187 25.96541898 26.47883606 27.40882874 C27.31054903 30.41631087 28.1398797 33.42443547 28.96728516 36.43310547 C30.0298466 40.29670464 31.09677194 44.15908134 32.16524792 48.02104855 C32.98732566 50.99316148 33.80796629 53.9656695 34.62807655 56.93832588 C35.02136339 58.3638155 35.41490621 59.78923452 35.80870628 61.21458244 C36.35574939 63.19607306 36.90105505 65.17803299 37.44580078 67.16015625 C37.75652023 68.28852402 38.06723969 69.41689178 38.38737488 70.57945251 C39.05053711 73.11352539 39.05053711 73.11352539 39.05053711 74.11352539 C33.11053711 74.11352539 27.17053711 74.11352539 21.05053711 74.11352539 C18.05053711 62.61352539 18.05053711 62.61352539 18.05053711 58.11352539 C11.12053711 58.11352539 4.19053711 58.11352539 -2.94946289 58.11352539 C-3.25883789 60.01102539 -3.56821289 61.90852539 -3.88696289 63.86352539 C-4.45428907 67.34312596 -5.09337087 70.6891573 -5.94946289 74.11352539 C-11.55946289 74.11352539 -17.16946289 74.11352539 -22.94946289 74.11352539 C-19.58452047 60.18566661 -15.74527902 46.40101187 -11.86669922 32.60839844 C-10.93482735 29.2941121 -10.0081652 25.97839268 -9.08276844 22.66229343 C-8.19374199 19.47981259 -7.29986276 16.29869582 -6.40649414 13.11743164 C-6.07422318 11.92598038 -5.74195221 10.73452911 -5.39961243 9.50697327 C-5.09226669 8.417509 -4.78492096 7.32804474 -4.46826172 6.20556641 C-4.19830887 5.24344742 -3.92835602 4.28132843 -3.65022278 3.29005432 C-2.64045634 0.15376483 -2.64045634 0.15376483 0 0 Z M7.05053711 18.11352539 C6.04456696 21.88279208 5.04678909 25.65417951 4.05053711 29.42602539 C3.76436523 30.49788086 3.47819336 31.56973633 3.18334961 32.67407227 C2.91264648 33.70209961 2.64194336 34.73012695 2.36303711 35.78930664 C2.11166992 36.73717041 1.86030273 37.68503418 1.60131836 38.66162109 C0.94095093 41.18253429 0.94095093 41.18253429 1.05053711 44.11352539 C5.34053711 44.11352539 9.63053711 44.11352539 14.05053711 44.11352539 C12.59613672 35.26592302 10.44877086 26.74018174 8.05053711 18.11352539 C7.72053711 18.11352539 7.39053711 18.11352539 7.05053711 18.11352539 Z " fill="#FFFFFF" transform="translate(316.949462890625,19.886474609375)"/>
<path d="M0 0 C13.2 0 26.4 0 40 0 C40 4.62 40 9.24 40 14 C32.08 14 24.16 14 16 14 C16 18.62 16 23.24 16 28 C23.26 28 30.52 28 38 28 C38 32.62 38 37.24 38 42 C30.74 42 23.48 42 16 42 C16 48.27 16 54.54 16 61 C23.92 61 31.84 61 40 61 C40 65.29 40 69.58 40 74 C26.8 74 13.6 74 0 74 C0 49.58 0 25.16 0 0 Z " fill="#FFFFFF" transform="translate(250,20)"/>
<path d="M0 0 C5.28 0 10.56 0 16 0 C16 24.42 16 48.84 16 74 C10.72 74 5.44 74 0 74 C0 49.58 0 25.16 0 0 Z " fill="#FFFFFF" transform="translate(416,20)"/>
<path d="M0 0 C1.89876771 2.26203677 3.35946032 4.31248925 4.875 6.8125 C5.30409668 7.48869385 5.73319336 8.1648877 6.17529297 8.86157227 C7.04692047 10.23858767 7.91106009 11.62037181 8.76757812 13.00683594 C9.89569603 14.83131188 11.04291438 16.64113177 12.203125 18.4453125 C13.81519818 20.95516627 15.40971398 23.47628523 17 26 C17.33 17.75 17.66 9.5 18 1 C21.465 0.505 21.465 0.505 25 0 C25 13.86 25 27.72 25 42 C18 42 18 42 16.1015625 40.3046875 C15.37066406 39.10199219 15.37066406 39.10199219 14.625 37.875 C13.77615234 36.52921875 13.77615234 36.52921875 12.91015625 35.15625 C12.27980469 34.1146875 11.64945313 33.073125 11 32 C10.1904863 30.73682481 9.37646739 29.47652849 8.55859375 28.21875 C6.35204007 24.82517523 4.17096731 21.41644289 2 18 C1.97494385 18.69150146 1.9498877 19.38300293 1.92407227 20.09545898 C1.80847839 23.20967866 1.68558758 26.32356789 1.5625 29.4375 C1.52318359 30.52611328 1.48386719 31.61472656 1.44335938 32.73632812 C1.40146484 33.77080078 1.35957031 34.80527344 1.31640625 35.87109375 C1.26141968 37.30859985 1.26141968 37.30859985 1.20532227 38.77514648 C1 41 1 41 0 42 C-2.31 42 -4.62 42 -7 42 C-7 28.47 -7 14.94 -7 1 C-4.30001976 -0.34999012 -2.99749886 -0.54619148 0 0 Z " fill="#FFFFFF" transform="translate(235,107)"/>
<path d="M0 0 C0.95519531 -0.020625 1.91039062 -0.04125 2.89453125 -0.0625 C11.82223442 -0.11216733 11.82223442 -0.11216733 15.75 3.25 C18.17136226 6.88204338 18.07929639 8.80143835 18.125 13.125 C18.15335937 14.33929688 18.18171875 15.55359375 18.2109375 16.8046875 C17.67423923 20.81627964 16.56933478 22.40970362 13.75 25.25 C13.09 25.58 12.43 25.91 11.75 26.25 C12.2553125 27.08144531 12.760625 27.91289062 13.28125 28.76953125 C14.25578125 30.39955078 14.25578125 30.39955078 15.25 32.0625 C15.8996875 33.14144531 16.549375 34.22039062 17.21875 35.33203125 C18.75 38.25 18.75 38.25 18.75 41.25 C13.83456914 42.39108216 13.83456914 42.39108216 10.75 41.25 C7.58713162 37.38724014 2.75 31.3991524 2.75 26.25 C0.77 26.25 -1.21 26.25 -3.25 26.25 C-3.25 31.2 -3.25 36.15 -3.25 41.25 C-5.89 41.25 -8.53 41.25 -11.25 41.25 C-11.27464705 35.57169922 -11.29283462 29.89342931 -11.30493164 24.21508789 C-11.30997256 22.28181415 -11.31680519 20.34854424 -11.32543945 18.4152832 C-11.33751565 15.64273128 -11.34323057 12.87022959 -11.34765625 10.09765625 C-11.35281754 9.22786636 -11.35797882 8.35807648 -11.36329651 7.46192932 C-11.36349185 5.39094186 -11.31208168 3.32005676 -11.25 1.25 C-8.90212094 -1.09787906 -3.1506075 0.01673629 0 0 Z M-3.25 7.25 C-3.25 11.21 -3.25 15.17 -3.25 19.25 C3.42405852 19.7372787 3.42405852 19.7372787 9.75 18.25 C10.52811718 14.43015204 10.99386556 11.98159669 9.75 8.25 C5.89854957 6.32427479 0.94956748 7.20116782 -3.25 7.25 Z " fill="#FFFFFF" transform="translate(358.25,107.75)"/>
<path d="M0 0 C1.47206013 2.94412027 1.23807192 5.96285915 1.31640625 9.1953125 C1.33718735 9.90275604 1.35796844 10.61019958 1.37937927 11.33908081 C1.44481078 13.60095425 1.50372974 15.86294462 1.5625 18.125 C1.60569133 19.65756422 1.64930582 21.19011657 1.69335938 22.72265625 C1.80048555 26.48165073 1.9017709 30.24076292 2 34 C6.94660369 34.89038866 9.87361891 34.85439685 15 34 C15.33 23.11 15.66 12.22 16 1 C19.465 0.505 19.465 0.505 23 0 C25.69470438 2.69470438 24.23010005 10.52994586 24.24023438 14.41772461 C24.24988611 16.66102946 24.28086893 18.90339693 24.3125 21.14648438 C24.31903544 22.58072373 24.32428379 24.01496965 24.328125 25.44921875 C24.34214355 27.40347778 24.34214355 27.40347778 24.35644531 29.3972168 C23.87709062 34.24231073 22.56519088 37.67797271 18.8125 40.84765625 C15.18421762 42.33424417 11.85908054 42.47666041 8 42.4375 C6.95199219 42.4674707 6.95199219 42.4674707 5.8828125 42.49804688 C2.351276 42.49471524 0.17288297 42.10311906 -2.875 40.28515625 C-7.07910706 35.76419554 -7.2432999 31.53413705 -7.1953125 25.51171875 C-7.1924826 24.80852005 -7.18965271 24.10532135 -7.18673706 23.3808136 C-7.17560151 21.14953108 -7.15050997 18.91865983 -7.125 16.6875 C-7.1149616 15.16862562 -7.10583726 13.6497449 -7.09765625 12.13085938 C-7.07568413 8.42044079 -7.04120047 4.71026058 -7 1 C-4 0 -4 0 0 0 Z " fill="#FFFFFF" transform="translate(198,107)"/>
<path d="M0 0 C8.58 0 17.16 0 26 0 C26 1.98 26 3.96 26 6 C25 7 25 7 23.23413086 7.11352539 C22.48526611 7.10828857 21.73640137 7.10305176 20.96484375 7.09765625 C20.15595703 7.09443359 19.34707031 7.09121094 18.51367188 7.08789062 C17.66353516 7.07951172 16.81339844 7.07113281 15.9375 7.0625 C15.08349609 7.05798828 14.22949219 7.05347656 13.34960938 7.04882812 C11.23304337 7.03700373 9.11651315 7.01906769 7 7 C7 10.3 7 13.6 7 17 C12.61 17 18.22 17 24 17 C24 18.98 24 20.96 24 23 C18.39 23 12.78 23 7 23 C7 26.63 7 30.26 7 34 C13.27 34 19.54 34 26 34 C26 35.98 26 37.96 26 40 C24.28432208 41.71567792 22.02627265 41.13015825 19.6875 41.1328125 C18.61242187 41.13410156 17.53734375 41.13539063 16.4296875 41.13671875 C15.29789062 41.13285156 14.16609375 41.12898438 13 41.125 C11.86820312 41.12886719 10.73640625 41.13273437 9.5703125 41.13671875 C8.49523437 41.13542969 7.42015625 41.13414062 6.3125 41.1328125 C5.31863281 41.13168457 4.32476562 41.13055664 3.30078125 41.12939453 C1 41 1 41 0 40 C-0.08868299 37.04294679 -0.11520296 34.10934944 -0.09765625 31.15234375 C-0.0962413 30.2659169 -0.09482635 29.37949005 -0.09336853 28.46620178 C-0.08775215 25.62326746 -0.07519691 22.78041069 -0.0625 19.9375 C-0.05748711 18.01497509 -0.05292384 16.09244896 -0.04882812 14.16992188 C-0.03862648 9.44656036 -0.01905437 4.72336742 0 0 Z " fill="#FFFFFF" transform="translate(315,108)"/>
<path d="M0 0 C2.31 0.33 4.62 0.66 7 1 C9.64 9.58 12.28 18.16 15 27 C17.50730643 21.25150475 17.50730643 21.25150475 19.28125 15.44921875 C19.48363281 14.66869141 19.68601562 13.88816406 19.89453125 13.08398438 C20.30281723 11.46796212 20.70636196 9.85073555 21.10546875 8.23242188 C21.30785156 7.45833984 21.51023437 6.68425781 21.71875 5.88671875 C21.98075195 4.83810669 21.98075195 4.83810669 22.24804688 3.76831055 C23 2 23 2 26 0 C28.6875 -0.125 28.6875 -0.125 31 0 C32.00519611 3.10615897 31.99468353 4.87233277 30.92016602 7.94238281 C30.65982071 8.70286926 30.3994754 9.46335571 30.13124084 10.24688721 C29.84172043 11.05744568 29.55220001 11.86800415 29.25390625 12.703125 C28.81896095 13.95980988 28.81896095 13.95980988 28.37522888 15.24188232 C27.44755247 17.91482448 26.5052545 20.58234326 25.5625 23.25 C24.93067031 25.06216198 24.29979916 26.87465847 23.66992188 28.6875 C22.12437389 33.12895696 20.56569361 37.56560672 19 42 C16.69 42 14.38 42 12 42 C8.75099805 34.16575837 5.90845692 26.21892355 3.1875 18.1875 C2.76791016 16.98673828 2.34832031 15.78597656 1.91601562 14.54882812 C1.32916992 12.81342773 1.32916992 12.81342773 0.73046875 11.04296875 C0.37364014 10.00164795 0.01681152 8.96032715 -0.35083008 7.88745117 C-1.03678625 4.83637795 -0.85347183 2.97841453 0 0 Z " fill="#FFFFFF" transform="translate(279,107)"/>
<path d="M0 0 C0 1.65 0 3.3 0 5 C-2.96975105 5.86787245 -5.53817078 6.08259075 -8.625 6 C-11.94299631 5.87337758 -11.94299631 5.87337758 -15 7 C-14.90924054 9.39200563 -14.90924054 9.39200563 -14 12 C-11.62495746 13.91005947 -11.62495746 13.91005947 -8.6875 15.4375 C-4.22750123 18.13087588 -1.08380845 20.0385513 1 25 C1.77419262 29.68677898 1.67050001 32.89020689 -0.8125 37 C-4.89688895 40.73429847 -9.33393701 40.15103434 -14.5625 40.125 C-15.34302734 40.12886719 -16.12355469 40.13273437 -16.92773438 40.13671875 C-22.74664502 40.12667749 -22.74664502 40.12667749 -25 39 C-25.042721 37.33388095 -25.04063832 35.66617115 -25 34 C-24 33 -24 33 -21.1640625 32.9375 C-18.80989421 32.97907472 -16.45572753 33.02074098 -14.1015625 33.0625 C-10.96356035 33.15288146 -10.96356035 33.15288146 -8 32 C-7.60790926 29.64783868 -7.60790926 29.64783868 -8 27 C-10.01166016 25.04124576 -10.01166016 25.04124576 -12.6875 23.5 C-21.66992392 17.66015215 -21.66992392 17.66015215 -24 13 C-24.57538625 5.98028769 -24.57538625 5.98028769 -22.3125 2.125 C-15.98671751 -3.6878812 -7.61252618 -3.12308766 0 0 Z " fill="#FFFFFF" transform="translate(406,109)"/>
<path d="M0 0 C3.22265625 -0.00390625 3.22265625 -0.00390625 7 1 C9.03955624 3.43111503 10.19570715 6.16002609 11.4375 9.0625 C11.78748047 9.82111328 12.13746094 10.57972656 12.49804688 11.36132812 C13.35601731 13.23005825 14.18127614 15.1137453 15 17 C15.63808594 15.85660156 16.27617187 14.71320313 16.93359375 13.53515625 C17.76814187 12.04422197 18.60278204 10.55333921 19.4375 9.0625 C19.85837891 8.30775391 20.27925781 7.55300781 20.71289062 6.77539062 C21.31713867 5.69741211 21.31713867 5.69741211 21.93359375 4.59765625 C22.30540771 3.93258057 22.67722168 3.26750488 23.06030273 2.58227539 C24 1 24 1 25 0 C26.66617115 -0.04063832 28.33388095 -0.042721 30 0 C30.82247111 2.84049625 31.21752843 4.44616514 30.11962891 7.24145508 C29.65991699 7.99322021 29.20020508 8.74498535 28.7265625 9.51953125 C28.2313208 10.3700708 27.7360791 11.22061035 27.22583008 12.09692383 C26.69755615 12.99306396 26.16928223 13.8892041 25.625 14.8125 C20.39588487 24.11475219 18.35047064 31.32052883 19 42 C16.66705225 42.04241723 14.33297433 42.04092937 12 42 C11.67 41.67 11.34 41.34 11 41 C11.02320313 40.05640625 11.04640625 39.1128125 11.0703125 38.140625 C11.2210391 27.41750416 8.16488996 20.23869845 2.77392578 11.00878906 C2.03118408 9.7282666 2.03118408 9.7282666 1.2734375 8.421875 C0.81372559 7.66487305 0.35401367 6.90787109 -0.11962891 6.12792969 C-1.15915506 3.61530906 -0.93352078 2.50595311 0 0 Z " fill="#FFFFFF" transform="translate(461,107)"/>
<path d="M0 0 C9.9 0 19.8 0 30 0 C30 2.31 30 4.62 30 7 C26.37 7 22.74 7 19 7 C19 18.22 19 29.44 19 41 C16.36 41 13.72 41 11 41 C11 29.78 11 18.56 11 7 C7.37 7 3.74 7 0 7 C0 4.69 0 2.38 0 0 Z " fill="#FFFFFF" transform="translate(426,108)"/>
<path d="M0 0 C2.98885268 2.77737346 5.01050908 5.43928991 6.9609375 9.015625 C7.50838623 10.00852539 8.05583496 11.00142578 8.61987305 12.02441406 C9.19906494 13.08885742 9.77825684 14.15330078 10.375 15.25 C11.61663192 17.50102566 12.86017588 19.75099755 14.10546875 22 C14.74403809 23.15371094 15.38260742 24.30742188 16.04052734 25.49609375 C19.17604565 31.12690901 22.43090419 36.68861744 25.6875 42.25 C26.27515137 43.25450195 26.86280273 44.25900391 27.46826172 45.29394531 C30.52225288 50.5173482 30.52225288 50.5173482 33.67895508 55.67871094 C35 58 35 58 35 60 C31.875 60.5625 31.875 60.5625 28 60 C25.32012388 57.46459159 23.75855369 54.21197021 22 51 C21.26396833 49.68696843 20.52691234 48.37451073 19.7890625 47.0625 C18.08883198 44.02449518 16.40607282 40.97742782 14.73046875 37.92578125 C11.07382066 31.29220394 7.25530455 24.75325803 3.4453125 18.20703125 C3.03531006 17.49708008 2.62530762 16.78712891 2.20288086 16.05566406 C1.40861984 14.69831115 0.59713124 13.35087602 -0.23217773 12.01464844 C-3.07279174 7.35734129 -3.07279174 7.35734129 -2.3125 3.625 C-1 1 -1 1 0 0 Z " fill="#F4F4F4" transform="translate(83,47)"/>
<path d="M0 0 C0.66 0 1.32 0 2 0 C2.3717334 0.66829834 2.7434668 1.33659668 3.12646484 2.02514648 C14.99558325 23.8495819 14.99558325 23.8495819 28 45 C28 45.99 28 46.98 28 48 C25.69 48 23.38 48 21 48 C20.65855957 47.3922876 20.31711914 46.7845752 19.96533203 46.15844727 C18.9388372 44.3329371 17.91140719 42.50795264 16.88330078 40.68334961 C15.70542548 38.59271091 14.52933484 36.50106577 13.35498047 34.40844727 C10.60273752 29.52285992 7.82814079 24.66581401 4.875 19.8984375 C4.40819824 19.13845459 3.94139648 18.37847168 3.46044922 17.59545898 C2.59084421 16.19025996 1.70764772 14.79335277 0.80908203 13.40649414 C-1.12960489 10.25783802 -2.0215093 8.39979244 -1.8203125 4.66015625 C-1 2 -1 2 0 0 Z " fill="#F2F2F2" transform="translate(75,60)"/>
<path d="M0 0 C1 1 1 1 1.11352539 4.87719727 C1.11336621 6.60694167 1.10766849 8.33669081 1.09765625 10.06640625 C1.0962413 10.97502914 1.09482635 11.88365204 1.09336853 12.81980896 C1.08775193 15.73407221 1.07519665 18.64825981 1.0625 21.5625 C1.05748714 23.53320202 1.05292386 25.50390524 1.04882812 27.47460938 C1.03777711 32.31643559 1.02050138 37.15820495 1 42 C-1.33294775 42.04241723 -3.66702567 42.04092937 -6 42 C-7 41 -7 41 -7.11352539 37.21459961 C-7.11336622 35.52717271 -7.10766917 33.83974095 -7.09765625 32.15234375 C-7.0962413 31.2659169 -7.09482635 30.37949005 -7.09336853 29.46620178 C-7.08775215 26.62326746 -7.07519691 23.78041069 -7.0625 20.9375 C-7.05748711 19.01497509 -7.05292384 17.09244896 -7.04882812 15.16992188 C-7.03777741 10.44658451 -7.02050183 5.72330542 -7 1 C-4.51588385 -0.24205807 -2.74800896 -0.14092354 0 0 Z " fill="#FFFFFF" transform="translate(420,107)"/>
<path d="M0 0 C1 1 1 1 1.11352539 4.87719727 C1.11336621 6.60694167 1.10766849 8.33669081 1.09765625 10.06640625 C1.0962413 10.97502914 1.09482635 11.88365204 1.09336853 12.81980896 C1.08775193 15.73407221 1.07519665 18.64825981 1.0625 21.5625 C1.05748714 23.53320202 1.05292386 25.50390524 1.04882812 27.47460938 C1.03777711 32.31643559 1.02050138 37.15820495 1 42 C-1.33294775 42.04241723 -3.66702567 42.04092937 -6 42 C-7 41 -7 41 -7.11352539 37.21459961 C-7.11336622 35.52717271 -7.10766917 33.83974095 -7.09765625 32.15234375 C-7.0962413 31.2659169 -7.09482635 30.37949005 -7.09336853 29.46620178 C-7.08775215 26.62326746 -7.07519691 23.78041069 -7.0625 20.9375 C-7.05748711 19.01497509 -7.05292384 17.09244896 -7.04882812 15.16992188 C-7.03777741 10.44658451 -7.02050183 5.72330542 -7 1 C-4.51588385 -0.24205807 -2.74800896 -0.14092354 0 0 Z " fill="#FFFFFF" transform="translate(273,107)"/>
<path d="M0 0 C3.22850311 2.9610036 5.2792502 5.92108209 7.3828125 9.75390625 C7.99253906 10.85541016 8.60226563 11.95691406 9.23046875 13.09179688 C9.85566406 14.23712891 10.48085937 15.38246094 11.125 16.5625 C12.37667639 18.83514664 13.62923992 21.10730498 14.8828125 23.37890625 C15.43340332 24.3851001 15.98399414 25.39129395 16.55126953 26.42797852 C18.02200515 29.11421611 18.02200515 29.11421611 20 32 C20 32.99 20 33.98 20 35 C17.69 35 15.38 35 13 35 C10.87574801 31.37410189 8.75803806 27.74448725 6.64624023 24.11132812 C5.9273133 22.87656828 5.20662637 21.64283141 4.48413086 20.41015625 C3.4443781 18.63549222 2.41106452 16.85721414 1.37890625 15.078125 C0.44413452 13.47565918 0.44413452 13.47565918 -0.50952148 11.84082031 C-2.70507391 7.65614413 -2.70507391 7.65614413 -3 5 C-1.5625 2.25 -1.5625 2.25 0 0 Z " fill="#F0F0F0" transform="translate(68,73)"/>
<path d="M0 0 C0.66 0 1.32 0 2 0 C3.23681641 1.71240234 3.23681641 1.71240234 4.6015625 4.0859375 C5.09140625 4.93414062 5.58125 5.78234375 6.0859375 6.65625 C6.59382813 7.5534375 7.10171875 8.450625 7.625 9.375 C8.140625 10.26445313 8.65625 11.15390625 9.1875 12.0703125 C13 18.72705853 13 18.72705853 13 21 C10.36 21 7.72 21 5 21 C3.60179862 18.78268064 2.23236642 16.55461846 0.875 14.3125 C0.27751953 13.37374023 0.27751953 13.37374023 -0.33203125 12.41601562 C-3.16456508 7.67027912 -3.16456508 7.67027912 -2.3046875 4.16796875 C-1.87414063 3.45253906 -1.44359375 2.73710938 -1 2 C-0.67 1.34 -0.34 0.68 0 0 Z " fill="#F4F4F4" transform="translate(60,86)"/>
<path d="M0 0 C3.0916909 2.52956528 3.90931332 5.22454612 5 9 C2.03 9 -0.94 9 -4 9 C-3.08541782 5.34167128 -1.99523834 3.12298174 0 0 Z " fill="#D9D9D9" transform="translate(53,99)"/>
</svg>
